<svg xmlns="http://www.w3.org/2000/svg" xmlns:xlink="http://www.w3.org/1999/xlink" width="1817" height="405" viewBox="0 0 1817 405">
  <defs>
    <clipPath id="clip-path">
      <circle id="Ellipse_2" data-name="Ellipse 2" cx="133" cy="133" r="133" transform="translate(-1382 2937)" fill="#fff" stroke="#707070" stroke-width="1"/>
    </clipPath>
  </defs>
  <g id="Group_18" data-name="Group 18" transform="translate(2213 -2809)">
    <g id="Group_17" data-name="Group 17">
      <g id="Group_16" data-name="Group 16">
        <g id="Group_13" data-name="Group 13">
          <g id="Group_12" data-name="Group 12">
            <g id="Rectangle_58" data-name="Rectangle 58" transform="translate(-849 2809)" fill="none" stroke="#d6d6d6" stroke-width="3">
              <rect width="453" height="405" rx="10" stroke="none"/>
              <rect x="1.5" y="1.5" width="450" height="402" rx="8.5" fill="none"/>
            </g>
            <g id="Group_15" data-name="Group 15">
              <g id="Group_14" data-name="Group 14">
                <g id="Group_11" data-name="Group 11">
                  <g id="Group_10" data-name="Group 10">
                    <g id="Rectangle_30" data-name="Rectangle 30" transform="translate(-2213 2809)" fill="none" stroke="#d6d6d6" stroke-width="3">
                      <rect width="453" height="405" rx="10" stroke="none"/>
                      <rect x="1.5" y="1.5" width="450" height="402" rx="8.5" fill="none"/>
                    </g>
                    <g id="Rectangle_38" data-name="Rectangle 38" transform="translate(-1550 2809)" fill="none" stroke="#d6d6d6" stroke-width="3">
                      <rect width="453" height="405" rx="10" stroke="none"/>
                      <rect x="1.5" y="1.5" width="450" height="402" rx="8.5" fill="none"/>
                    </g>
                    <path id="Rectangle_48" data-name="Rectangle 48" d="M10,0H443a10,10,0,0,1,10,10V41a0,0,0,0,1,0,0H0a0,0,0,0,1,0,0V10A10,10,0,0,1,10,0Z" transform="translate(-1550 2809)" fill="#d6d6d6"/>
                    <path id="Rectangle_59" data-name="Rectangle 59" d="M10,0H443a10,10,0,0,1,10,10V41a0,0,0,0,1,0,0H0a0,0,0,0,1,0,0V10A10,10,0,0,1,10,0Z" transform="translate(-849 2809)" fill="#d6d6d6"/>
                    <g id="Rectangle_31" data-name="Rectangle 31" transform="translate(-2202 2819)" fill="#d4d4d4" stroke="#d6d6d6" stroke-width="1">
                      <rect width="432" height="227" rx="10" stroke="none"/>
                      <rect x="0.5" y="0.5" width="431" height="226" rx="9.5" fill="none"/>
                    </g>
                    <g id="Rectangle_39" data-name="Rectangle 39" transform="translate(-1520 2872)" fill="#d4d4d4" stroke="#d6d6d6" stroke-width="1" opacity="0.51">
                      <rect width="216" height="88" rx="5" stroke="none"/>
                      <rect x="0.5" y="0.5" width="215" height="87" rx="4.5" fill="none"/>
                    </g>
                    <g id="Rectangle_45" data-name="Rectangle 45" transform="translate(-1520 2972)" fill="#d4d4d4" stroke="#d6d6d6" stroke-width="1" opacity="0.51">
                      <rect width="67" height="33" rx="5" stroke="none"/>
                      <rect x="0.5" y="0.5" width="66" height="32" rx="4.5" fill="none"/>
                    </g>
                    <g id="Rectangle_46" data-name="Rectangle 46" transform="translate(-1445 2972)" fill="#d4d4d4" stroke="#d6d6d6" stroke-width="1" opacity="0.51">
                      <rect width="67" height="33" rx="5" stroke="none"/>
                      <rect x="0.5" y="0.5" width="66" height="32" rx="4.5" fill="none"/>
                    </g>
                    <g id="Rectangle_47" data-name="Rectangle 47" transform="translate(-1371 2972)" fill="#d4d4d4" stroke="#d6d6d6" stroke-width="1" opacity="0.51">
                      <rect width="67" height="33" rx="5" stroke="none"/>
                      <rect x="0.5" y="0.5" width="66" height="32" rx="4.5" fill="none"/>
                    </g>
                    <rect id="Rectangle_32" data-name="Rectangle 32" width="194" height="35" transform="translate(-2202 3071)" fill="#d4d4d4"/>
                    <rect id="Rectangle_40" data-name="Rectangle 40" width="83" height="18" transform="translate(-1517 3022)" fill="#d4d4d4" opacity="0.42"/>
                    <rect id="Rectangle_33" data-name="Rectangle 33" width="99" height="14" transform="translate(-2202 3111)" fill="#d4d4d4"/>
                    <rect id="Rectangle_41" data-name="Rectangle 41" width="72" height="9" transform="translate(-1517 3045)" fill="#d4d4d4" opacity="0.42"/>
                    <rect id="Rectangle_34" data-name="Rectangle 34" width="30" height="26" transform="translate(-2198 3155)" fill="#d4d4d4"/>
                    <rect id="Rectangle_42" data-name="Rectangle 42" width="15" height="13" transform="translate(-1517 3063)" fill="#d4d4d4" opacity="0.42"/>
                    <rect id="Rectangle_35" data-name="Rectangle 35" width="30" height="26" transform="translate(-2165 3155)" fill="#d4d4d4"/>
                    <rect id="Rectangle_43" data-name="Rectangle 43" width="15" height="13" transform="translate(-1497 3063)" fill="#d4d4d4" opacity="0.42"/>
                    <rect id="Rectangle_36" data-name="Rectangle 36" width="30" height="26" transform="translate(-2131 3155)" fill="#d4d4d4"/>
                    <rect id="Rectangle_44" data-name="Rectangle 44" width="14" height="13" transform="translate(-1477 3063)" fill="#d4d4d4" opacity="0.42"/>
                    <g id="real-estate" transform="translate(-2081.275 2870.723)">
                      <path id="Path_3" data-name="Path 3" d="M84.619,74.1V24.694L60.81,7.685,37,24.694V74.1H48.9V44.337h23.81V74.1ZM69.738,35.408H51.881V23.5H69.738Z" transform="translate(67.191 9.249)" fill="#fff"/>
                      <path id="Path_4" data-name="Path 4" d="M19,35H36.857V52.857H19Z" transform="translate(31.619 63.23)" fill="#fff"/>
                      <path id="Path_5" data-name="Path 5" d="M9,96.572h5.952V60.857H50.667V96.572H86.381V43H9ZM59.6,51.929H77.453V69.786H59.6Z" transform="translate(11.857 79.039)" fill="#fff"/>
                      <path id="Path_6" data-name="Path 6" d="M49.547,23H27.639L49.547,42.473Z" transform="translate(48.691 39.515)" fill="#fff"/>
                      <path id="Path_7" data-name="Path 7" d="M13,51H36.81V80.762H13Z" transform="translate(19.762 94.849)" fill="#fff"/>
                      <path id="Path_8" data-name="Path 8" d="M111.14,73.822a3.06,3.06,0,0,0,4.2-.244,2.982,2.982,0,0,0-.241-4.2L61.53,21.756a2.973,2.973,0,0,0-3.958,0L4,69.372a2.976,2.976,0,0,0-.25,4.2,3.056,3.056,0,0,0,4.205.25l51.593-45.86Z" transform="translate(0 35.563)" fill="#fff"/>
                      <path id="Path_9" data-name="Path 9" d="M37,84.714h65.477V49H37ZM75.691,57.929H93.548V75.786H75.691Zm-29.762,0H63.786V75.786H45.929Z" transform="translate(67.191 90.896)" fill="#fff"/>
                      <path id="Path_10" data-name="Path 10" d="M9,60.405V70.613H32.81V46.8H62.572v23.81h23.81V60.405L47.691,26.015Z" transform="translate(11.857 45.473)" fill="#fff"/>
                      <path id="Path_11" data-name="Path 11" d="M37,45h71.429v5.952H37Z" transform="translate(67.191 82.992)" fill="#fff"/>
                      <path id="Path_12" data-name="Path 12" d="M97.06,23H90.572V49.786h-51.3L51.863,60.976a8.928,8.928,0,0,1,.741,12.6A9.192,9.192,0,0,1,40,74.316l-3-2.661V82.524h71.429V79.843Z" transform="translate(67.191 39.515)" fill="#fff"/>
                      <path id="Path_13" data-name="Path 13" d="M43,22H54.9V45.81H43Z" transform="translate(79.048 37.539)" fill="#fff"/>
                      <path id="Path_14" data-name="Path 14" d="M34.705,38.149,74.643,9.625l39.932,28.524a3.05,3.05,0,0,0,4.158-.69,2.967,2.967,0,0,0-.69-4.14L76.372,3.544a3.028,3.028,0,0,0-3.455,0L31.25,33.307a2.913,2.913,0,0,0-1.208,1.932,2.957,2.957,0,0,0,.515,2.223,3.06,3.06,0,0,0,4.149.688Z" transform="translate(53.357 0)" fill="#fff"/>
                    </g>
                    <g id="Group_4" data-name="Group 4" transform="translate(-102 15.683)" opacity="0.8">
                      <g id="Rectangle_51" data-name="Rectangle 51" transform="translate(-715 2950.317)" fill="none" stroke="#d6d6d6" stroke-width="3">
                        <rect width="203" height="179" rx="10" stroke="none"/>
                        <rect x="1.5" y="1.5" width="200" height="176" rx="8.5" fill="none"/>
                      </g>
                      <g id="Rectangle_52" data-name="Rectangle 52" transform="translate(-703 2960.317)" fill="#d4d4d4" stroke="#d6d6d6" stroke-width="1">
                        <rect width="179" height="93" rx="10" stroke="none"/>
                        <rect x="0.5" y="0.5" width="178" height="92" rx="9.5" fill="none"/>
                      </g>
                      <rect id="Rectangle_53" data-name="Rectangle 53" width="80" height="14" transform="translate(-703 3064.317)" fill="#d4d4d4"/>
                      <rect id="Rectangle_54" data-name="Rectangle 54" width="41" height="6" transform="translate(-703 3081.317)" fill="#d4d4d4"/>
                      <rect id="Rectangle_55" data-name="Rectangle 55" width="13" height="11" transform="translate(-702 3099.317)" fill="#d4d4d4"/>
                      <rect id="Rectangle_56" data-name="Rectangle 56" width="11" height="11" transform="translate(-687 3099.317)" fill="#d4d4d4"/>
                      <rect id="Rectangle_57" data-name="Rectangle 57" width="13" height="11" transform="translate(-674 3099.317)" fill="#d4d4d4"/>
                      <g id="real-estate-2" data-name="real-estate" transform="translate(-651.558 2982.684)">
                        <path id="Path_3-2" data-name="Path 3" d="M56.747,35.226V14.738L46.874,7.685,37,14.738V35.226h4.937V22.884H51.81V35.226ZM50.576,19.182H43.171V14.245h7.405Z" transform="translate(4.963 -1.908)" fill="#fff"/>
                        <path id="Path_4-2" data-name="Path 4" d="M19,35h7.405v7.405H19Z" transform="translate(0.747 4.489)" fill="#fff"/>
                        <path id="Path_5-2" data-name="Path 5" d="M9,65.216h2.468V50.405h14.81v14.81h14.81V43H9ZM29.981,46.7h7.405v7.405H29.981Z" transform="translate(-1.595 6.363)" fill="#fff"/>
                        <path id="Path_6-2" data-name="Path 6" d="M36.724,23H27.639l9.085,8.075Z" transform="translate(2.77 1.678)" fill="#fff"/>
                        <path id="Path_7-2" data-name="Path 7" d="M13,51h9.874V63.342H13Z" transform="translate(-0.658 8.236)" fill="#fff"/>
                        <path id="Path_8-2" data-name="Path 8" d="M47.845,42.9a1.269,1.269,0,0,0,1.743-.1,1.237,1.237,0,0,0-.1-1.743L27.272,21.313a1.233,1.233,0,0,0-1.641,0L3.415,41.06a1.234,1.234,0,0,0-.1,1.741,1.267,1.267,0,0,0,1.744.1L26.45,23.887Z" transform="translate(-3 1.21)" fill="#fff"/>
                        <path id="Path_9-2" data-name="Path 9" d="M37,63.81H64.153V49H37ZM53.045,52.7H60.45v7.405H53.045ZM40.7,52.7h7.405v7.405H40.7Z" transform="translate(4.963 7.768)" fill="#fff"/>
                        <path id="Path_10-2" data-name="Path 10" d="M9,40.276V44.51h9.874V34.636H31.216V44.51h9.874V40.276L25.045,26.015Z" transform="translate(-1.595 2.385)" fill="#fff"/>
                        <path id="Path_11-2" data-name="Path 11" d="M37,45H66.621v2.468H37Z" transform="translate(4.963 6.831)" fill="#fff"/>
                        <path id="Path_12-2" data-name="Path 12" d="M61.906,23H59.216V34.108H37.943l5.221,4.641a3.7,3.7,0,0,1,.307,5.226,3.812,3.812,0,0,1-5.228.306L37,43.177v4.507H66.621V46.572Z" transform="translate(4.963 1.678)" fill="#fff"/>
                        <path id="Path_13-2" data-name="Path 13" d="M43,22h4.937v9.874H43Z" transform="translate(6.368 1.444)" fill="#fff"/>
                        <path id="Path_14-2" data-name="Path 14" d="M31.951,17.579,48.513,5.75,65.072,17.579a1.265,1.265,0,0,0,1.724-.286,1.23,1.23,0,0,0-.286-1.717L49.23,3.228a1.256,1.256,0,0,0-1.433,0L30.518,15.571a1.208,1.208,0,0,0-.5.8,1.226,1.226,0,0,0,.214.922,1.269,1.269,0,0,0,1.72.285Z" transform="translate(3.323 -3.005)" fill="#fff"/>
                      </g>
                    </g>
                    <g id="real-estate-3" data-name="real-estate" transform="translate(-1471.719 2892.852)">
                      <path id="Path_3-3" data-name="Path 3" d="M55.433,33.393V14.269L46.216,7.685,37,14.269V33.393h4.608V21.873h9.216V33.393Zm-5.76-14.977H42.76V13.808h6.912Z" transform="translate(2.17 -2.293)" fill="#fff"/>
                      <path id="Path_4-3" data-name="Path 4" d="M19,35h6.912v6.912H19Z" transform="translate(-0.567 1.86)" fill="#fff"/>
                      <path id="Path_5-3" data-name="Path 5" d="M9,63.737h2.3V49.912H25.129V63.737H38.953V43H9ZM28.585,46.456H35.5v6.912H28.585Z" transform="translate(-2.088 3.077)" fill="#fff"/>
                      <path id="Path_6-3" data-name="Path 6" d="M36.119,23h-8.48l8.48,7.538Z" transform="translate(0.746 0.036)" fill="#fff"/>
                      <path id="Path_7-3" data-name="Path 7" d="M13,51h9.216V62.521H13Z" transform="translate(-1.48 4.293)" fill="#fff"/>
                      <path id="Path_8-3" data-name="Path 8" d="M44.86,41.447a1.185,1.185,0,0,0,1.627-.094,1.154,1.154,0,0,0-.093-1.627L25.656,21.293a1.151,1.151,0,0,0-1.532,0L3.387,39.724a1.152,1.152,0,0,0-.1,1.626,1.183,1.183,0,0,0,1.628.1L24.889,23.695Z" transform="translate(-3 -0.268)" fill="#fff"/>
                      <path id="Path_9-3" data-name="Path 9" d="M37,62.825H62.345V49H37ZM51.977,52.456h6.912v6.912H51.977Zm-11.521,0h6.912v6.912H40.456Z" transform="translate(2.17 3.989)" fill="#fff"/>
                      <path id="Path_10-3" data-name="Path 10" d="M9,39.327v3.952h9.216V34.062H29.737v9.216h9.216V39.327L23.977,26.015Z" transform="translate(-2.088 0.494)" fill="#fff"/>
                      <path id="Path_11-3" data-name="Path 11" d="M37,45H64.649v2.3H37Z" transform="translate(2.17 3.381)" fill="#fff"/>
                      <path id="Path_12-3" data-name="Path 12" d="M60.248,23H57.737V33.368H37.88L42.753,37.7a3.456,3.456,0,0,1,.287,4.878,3.558,3.558,0,0,1-4.88.286L37,41.834v4.207H64.649V45Z" transform="translate(2.17 0.036)" fill="#fff"/>
                      <path id="Path_13-3" data-name="Path 13" d="M43,22h4.608v9.216H43Z" transform="translate(3.082 -0.116)" fill="#fff"/>
                      <path id="Path_14-3" data-name="Path 14" d="M31.821,16.608,47.281,5.567,62.738,16.608a1.181,1.181,0,0,0,1.609-.267,1.148,1.148,0,0,0-.267-1.6L47.95,3.214a1.172,1.172,0,0,0-1.338,0L30.484,14.734a1.128,1.128,0,0,0-.468.748,1.144,1.144,0,0,0,.2.861,1.185,1.185,0,0,0,1.606.266Z" transform="translate(1.105 -3.005)" fill="#fff"/>
                    </g>
                    <g id="click" transform="matrix(0.966, -0.259, 0.259, 0.966, -2013.84, 3082.048)" opacity="0.62">
                      <path id="Path_15" data-name="Path 15" d="M266.673,199.233l-49.157-49.157a2.458,2.458,0,0,0-4.2,1.735v68.068a2.458,2.458,0,0,0,3.972,1.937l12.481-9.758,10.893,19.609a2.458,2.458,0,0,0,3.249.983l14.747-7.374a2.458,2.458,0,0,0,1.1-3.3c-.016-.032-.032-.063-.049-.093l-10.254-18.458h15.48a2.458,2.458,0,0,0,1.74-4.2Z" transform="translate(-114.9 -114.94)" fill="#fff"/>
                      <g id="Group_1" data-name="Group 1" transform="translate(64.015 0)">
                        <path id="Path_16" data-name="Path 16" d="M86.852,70.756a2.459,2.459,0,0,1-.983-.211A36.868,36.868,0,1,1,134.56,51.9l0,0A2.458,2.458,0,1,1,130.07,49.9a31.952,31.952,0,1,0-42.2,16.153,2.458,2.458,0,0,1-.983,4.7h-.034Z" transform="translate(-64.015 0)" fill="#fff"/>
                        <path id="Path_17" data-name="Path 17" d="M141.838,106.43a2.419,2.419,0,0,1-1.032-.231,22.121,22.121,0,1,1,29.387-10.725l0,0a2.459,2.459,0,0,1-4.458-2.075,17.2,17.2,0,1,0-22.853,8.357,2.458,2.458,0,0,1-1.037,4.685Z" transform="translate(-113.265 -49.266)" fill="#fff"/>
                      </g>
                      <path id="Path_18" data-name="Path 18" d="M242.811,232.9a2.458,2.458,0,0,1-2.148-1.263L229.77,212.032l-12.476,9.763a2.458,2.458,0,0,1-3.977-1.932V151.8a2.458,2.458,0,0,1,4.2-1.74l49.157,49.157a2.458,2.458,0,0,1-1.74,4.2H249.448l10.259,18.468a2.458,2.458,0,0,1-.954,3.343l-.093.049-14.747,7.374A2.43,2.43,0,0,1,242.811,232.9Zm-12.289-27.036a2.378,2.378,0,0,1,.491.049,2.458,2.458,0,0,1,1.662,1.214L243.824,227.2l10.323-5.176-11.041-19.874a2.458,2.458,0,0,1,2.163-3.652H259l-40.766-40.761v57.086l10.775-8.425A2.459,2.459,0,0,1,230.522,205.868Z" transform="translate(-114.899 -114.923)" fill="#8c0000"/>
                      <path id="Path_19" data-name="Path 19" d="M86.852,70.756a2.459,2.459,0,0,1-.983-.211A36.868,36.868,0,1,1,134.56,51.9l0,0A2.458,2.458,0,1,1,130.07,49.9a31.952,31.952,0,1,0-42.2,16.153,2.458,2.458,0,0,1-.983,4.7h-.034Z" transform="translate(0)" fill="#8c0000"/>
                      <path id="Path_20" data-name="Path 20" d="M141.838,106.43a2.419,2.419,0,0,1-1.032-.231,22.121,22.121,0,1,1,29.387-10.725l0,0a2.459,2.459,0,0,1-4.458-2.075,17.2,17.2,0,1,0-22.853,8.357,2.458,2.458,0,0,1-1.037,4.685Z" transform="translate(-49.25 -49.266)" fill="#8c0000"/>
                    </g>
                    <g id="Group_2" data-name="Group 2" transform="translate(-62.609 0.596)">
                      <line id="Line_5" data-name="Line 5" x2="34.834" y2="34.834" transform="translate(-1605.901 2976.07)" fill="none" stroke="#707070" stroke-linecap="round" stroke-width="4"/>
                      <line id="Line_8" data-name="Line 8" x2="34.834" y2="34.834" transform="translate(-1628.715 2976.07)" fill="none" stroke="#707070" stroke-linecap="round" stroke-width="4"/>
                      <line id="Line_6" data-name="Line 6" y1="34.834" x2="34.834" transform="translate(-1605.901 3010.904)" fill="none" stroke="#707070" stroke-linecap="round" stroke-width="4"/>
                      <line id="Line_7" data-name="Line 7" y1="34.834" x2="34.834" transform="translate(-1628.715 3010.904)" fill="none" stroke="#707070" stroke-linecap="round" stroke-width="4"/>
                    </g>
                    <g id="Group_3" data-name="Group 3" transform="translate(659.391 0.596)">
                      <line id="Line_5-2" data-name="Line 5" x2="34.834" y2="34.834" transform="translate(-1605.901 2976.07)" fill="none" stroke="#707070" stroke-linecap="round" stroke-width="4"/>
                      <line id="Line_8-2" data-name="Line 8" x2="34.834" y2="34.834" transform="translate(-1628.715 2976.07)" fill="none" stroke="#707070" stroke-linecap="round" stroke-width="4"/>
                      <line id="Line_6-2" data-name="Line 6" y1="34.834" x2="34.834" transform="translate(-1605.901 3010.904)" fill="none" stroke="#707070" stroke-linecap="round" stroke-width="4"/>
                      <line id="Line_7-2" data-name="Line 7" y1="34.834" x2="34.834" transform="translate(-1628.715 3010.904)" fill="none" stroke="#707070" stroke-linecap="round" stroke-width="4"/>
                    </g>
                    <g id="Ellipse_3" data-name="Ellipse 3" transform="translate(-1384 2937)" fill="#fff" stroke="#707070" stroke-width="2">
                      <circle cx="133" cy="133" r="133" stroke="none"/>
                      <circle cx="133" cy="133" r="132" fill="none"/>
                    </g>
                    <g id="Mask_Group_1" data-name="Mask Group 1" clip-path="url(#clip-path)">
                      <g id="Rectangle_50" data-name="Rectangle 50" transform="translate(-1472 2950)" fill="#d4d4d4" stroke="#d6d6d6" stroke-width="1" opacity="0.51">
                        <rect width="157" height="77" rx="5" stroke="none"/>
                        <rect x="0.5" y="0.5" width="156" height="76" rx="4.5" fill="none"/>
                      </g>
                    </g>
                    <g id="Rectangle_49" data-name="Rectangle 49" transform="translate(-1330 3059)" fill="#ccc" stroke="#707070" stroke-width="1">
                      <rect width="163" height="41" rx="5" stroke="none"/>
                      <rect x="0.5" y="0.5" width="162" height="40" rx="4.5" fill="none"/>
                    </g>
                    <text id="Favorite" transform="translate(-1273 3085)" fill="#4a4a4a" font-size="15" font-family="ArialMT, Arial"><tspan x="0" y="0">Favorite</tspan></text>
                    <text id="Favorites" transform="translate(-808 2934)" fill="#d6d6d6" font-size="59" font-family="Arial-BoldMT, Arial" font-weight="700" opacity="0.8"><tspan x="0" y="0">Favorites</tspan></text>
                    <g id="click-2" data-name="click" transform="matrix(0.966, -0.259, 0.259, 0.966, -1281.84, 3110.048)" opacity="0.62">
                      <path id="Path_15-2" data-name="Path 15" d="M266.673,199.233l-49.157-49.157a2.458,2.458,0,0,0-4.2,1.735v68.068a2.458,2.458,0,0,0,3.972,1.937l12.481-9.758,10.893,19.609a2.458,2.458,0,0,0,3.249.983l14.747-7.374a2.458,2.458,0,0,0,1.1-3.3c-.016-.032-.032-.063-.049-.093l-10.254-18.458h15.48a2.458,2.458,0,0,0,1.74-4.2Z" transform="translate(-114.9 -114.94)" fill="#fff"/>
                      <g id="Group_1-2" data-name="Group 1" transform="translate(64.015 0)">
                        <path id="Path_16-2" data-name="Path 16" d="M86.852,70.756a2.459,2.459,0,0,1-.983-.211A36.868,36.868,0,1,1,134.56,51.9l0,0A2.458,2.458,0,1,1,130.07,49.9a31.952,31.952,0,1,0-42.2,16.153,2.458,2.458,0,0,1-.983,4.7h-.034Z" transform="translate(-64.015 0)" fill="#fff"/>
                        <path id="Path_17-2" data-name="Path 17" d="M141.838,106.43a2.419,2.419,0,0,1-1.032-.231,22.121,22.121,0,1,1,29.387-10.725l0,0a2.459,2.459,0,0,1-4.458-2.075,17.2,17.2,0,1,0-22.853,8.357,2.458,2.458,0,0,1-1.037,4.685Z" transform="translate(-113.265 -49.266)" fill="#fff"/>
                      </g>
                      <path id="Path_18-2" data-name="Path 18" d="M242.811,232.9a2.458,2.458,0,0,1-2.148-1.263L229.77,212.032l-12.476,9.763a2.458,2.458,0,0,1-3.977-1.932V151.8a2.458,2.458,0,0,1,4.2-1.74l49.157,49.157a2.458,2.458,0,0,1-1.74,4.2H249.448l10.259,18.468a2.458,2.458,0,0,1-.954,3.343l-.093.049-14.747,7.374A2.43,2.43,0,0,1,242.811,232.9Zm-12.289-27.036a2.378,2.378,0,0,1,.491.049,2.458,2.458,0,0,1,1.662,1.214L243.824,227.2l10.323-5.176-11.041-19.874a2.458,2.458,0,0,1,2.163-3.652H259l-40.766-40.761v57.086l10.775-8.425A2.459,2.459,0,0,1,230.522,205.868Z" transform="translate(-114.899 -114.923)" fill="#8c0000"/>
                      <path id="Path_19-2" data-name="Path 19" d="M86.852,70.756a2.459,2.459,0,0,1-.983-.211A36.868,36.868,0,1,1,134.56,51.9l0,0A2.458,2.458,0,1,1,130.07,49.9a31.952,31.952,0,1,0-42.2,16.153,2.458,2.458,0,0,1-.983,4.7h-.034Z" transform="translate(0)" fill="#8c0000"/>
                      <path id="Path_20-2" data-name="Path 20" d="M141.838,106.43a2.419,2.419,0,0,1-1.032-.231,22.121,22.121,0,1,1,29.387-10.725l0,0a2.459,2.459,0,0,1-4.458-2.075,17.2,17.2,0,1,0-22.853,8.357,2.458,2.458,0,0,1-1.037,4.685Z" transform="translate(-49.25 -49.266)" fill="#8c0000"/>
                    </g>
                    <path id="heart" d="M14.325,32.988A4.707,4.707,0,0,0,8,33.457a4.7,4.7,0,0,0-6.325-.469A4.728,4.728,0,0,0,1.344,39.9l5.481,5.584a1.641,1.641,0,0,0,2.35,0L14.656,39.9A4.732,4.732,0,0,0,14.325,32.988Zm-.737,5.859L8.106,44.432a.128.128,0,0,1-.212,0L2.412,38.847a3.223,3.223,0,0,1,.228-4.709,3.168,3.168,0,0,1,4.266.328L8,35.582l1.094-1.116a3.166,3.166,0,0,1,4.266-.331A3.236,3.236,0,0,1,13.587,38.847Z" transform="translate(-1302 3040.081)" fill="#484848"/>
                    <g id="Group_9" data-name="Group 9" transform="translate(-128 23)">
                      <circle id="Ellipse_4" data-name="Ellipse 4" cx="39" cy="39" r="39" transform="translate(-539 3072)" fill="#fff"/>
                      <g id="tick" transform="translate(-538.937 3072.063)">
                        <g id="Group_6" data-name="Group 6">
                          <g id="Group_5" data-name="Group 5">
                            <path id="Path_21" data-name="Path 21" d="M38.87,0A38.87,38.87,0,1,0,77.74,38.87,38.87,38.87,0,0,0,38.87,0Zm0,72.188A33.317,33.317,0,1,1,72.188,38.87,33.317,33.317,0,0,1,38.87,72.188Z" fill="#b76060"/>
                          </g>
                        </g>
                        <g id="Group_8" data-name="Group 8" transform="translate(16.625 22.246)">
                          <g id="Group_7" data-name="Group 7">
                            <path id="Path_22" data-name="Path 22" d="M145.765,137.522a2.776,2.776,0,0,0-3.858,0h0l-25.8,25.8-9.143-9.143a2.776,2.776,0,0,0-3.994,3.858l.068.068,11.106,11.106a2.776,2.776,0,0,0,3.926,0l27.765-27.765A2.776,2.776,0,0,0,145.765,137.522Z" transform="translate(-102.19 -136.743)" fill="#b76060"/>
                          </g>
                        </g>
                      </g>
                    </g>
                  </g>
                </g>
              </g>
            </g>
          </g>
        </g>
      </g>
    </g>
  </g>
</svg>
